<mxfile host="app.diagrams.net" modified="2023-03-07T13:31:19.209Z" agent="5.0 (Windows NT 10.0; Win64; x64) AppleWebKit/537.36 (KHTML, like Gecko) Chrome/110.0.0.0 Safari/537.36" etag="jOs_LojdTOz4J9g-gnYz" version="21.0.2" type="github">
  <diagram name="Page-1" id="929967ad-93f9-6ef4-fab6-5d389245f69c">
    <mxGraphModel dx="607" dy="334" grid="1" gridSize="10" guides="1" tooltips="1" connect="1" arrows="1" fold="1" page="1" pageScale="1.5" pageWidth="1169" pageHeight="826" background="none" math="0" shadow="0">
      <root>
        <mxCell id="0" style=";html=1;" />
        <mxCell id="1" style=";html=1;" parent="0" />
        <mxCell id="-hvkRYBavN8YZfYdUK61-1" value="&lt;font style=&quot;font-size: 15px;&quot;&gt;Airlines&amp;nbsp;&lt;/font&gt;" style="swimlane;fontStyle=0;childLayout=stackLayout;horizontal=1;startSize=26;fillColor=none;horizontalStack=0;resizeParent=1;resizeParentMax=0;resizeLast=0;collapsible=1;marginBottom=0;whiteSpace=wrap;html=1;" vertex="1" parent="1">
          <mxGeometry x="570" y="500" width="140" height="90" as="geometry" />
        </mxCell>
        <mxCell id="-hvkRYBavN8YZfYdUK61-2" value="+&amp;nbsp;airlineID   : int" style="text;strokeColor=none;fillColor=none;align=left;verticalAlign=top;spacingLeft=4;spacingRight=4;overflow=hidden;rotatable=0;points=[[0,0.5],[1,0.5]];portConstraint=eastwest;whiteSpace=wrap;html=1;" vertex="1" parent="-hvkRYBavN8YZfYdUK61-1">
          <mxGeometry y="26" width="140" height="26" as="geometry" />
        </mxCell>
        <mxCell id="-hvkRYBavN8YZfYdUK61-3" value="+ name: String" style="text;strokeColor=none;fillColor=none;align=left;verticalAlign=top;spacingLeft=4;spacingRight=4;overflow=hidden;rotatable=0;points=[[0,0.5],[1,0.5]];portConstraint=eastwest;whiteSpace=wrap;html=1;" vertex="1" parent="-hvkRYBavN8YZfYdUK61-1">
          <mxGeometry y="52" width="140" height="38" as="geometry" />
        </mxCell>
        <mxCell id="-hvkRYBavN8YZfYdUK61-5" value="&lt;font style=&quot;font-size: 15px;&quot;&gt;Airplane&amp;nbsp;&lt;/font&gt;" style="swimlane;fontStyle=0;childLayout=stackLayout;horizontal=1;startSize=26;fillColor=none;horizontalStack=0;resizeParent=1;resizeParentMax=0;resizeLast=0;collapsible=1;marginBottom=0;whiteSpace=wrap;html=1;" vertex="1" parent="1">
          <mxGeometry x="390" y="680" width="140" height="104" as="geometry" />
        </mxCell>
        <mxCell id="-hvkRYBavN8YZfYdUK61-6" value="+ airplaneID: int" style="text;strokeColor=none;fillColor=none;align=left;verticalAlign=top;spacingLeft=4;spacingRight=4;overflow=hidden;rotatable=0;points=[[0,0.5],[1,0.5]];portConstraint=eastwest;whiteSpace=wrap;html=1;" vertex="1" parent="-hvkRYBavN8YZfYdUK61-5">
          <mxGeometry y="26" width="140" height="26" as="geometry" />
        </mxCell>
        <mxCell id="-hvkRYBavN8YZfYdUK61-7" value="+ typeOfAirplane: String" style="text;strokeColor=none;fillColor=none;align=left;verticalAlign=top;spacingLeft=4;spacingRight=4;overflow=hidden;rotatable=0;points=[[0,0.5],[1,0.5]];portConstraint=eastwest;whiteSpace=wrap;html=1;" vertex="1" parent="-hvkRYBavN8YZfYdUK61-5">
          <mxGeometry y="52" width="140" height="26" as="geometry" />
        </mxCell>
        <mxCell id="-hvkRYBavN8YZfYdUK61-8" value="+ airplanesStatus: bool" style="text;strokeColor=none;fillColor=none;align=left;verticalAlign=top;spacingLeft=4;spacingRight=4;overflow=hidden;rotatable=0;points=[[0,0.5],[1,0.5]];portConstraint=eastwest;whiteSpace=wrap;html=1;" vertex="1" parent="-hvkRYBavN8YZfYdUK61-5">
          <mxGeometry y="78" width="140" height="26" as="geometry" />
        </mxCell>
        <mxCell id="-hvkRYBavN8YZfYdUK61-11" value="&lt;span style=&quot;font-weight: normal;&quot;&gt;1&lt;/span&gt;" style="text;align=center;fontStyle=1;verticalAlign=middle;spacingLeft=3;spacingRight=3;strokeColor=none;rotatable=0;points=[[0,0.5],[1,0.5]];portConstraint=eastwest;html=1;" vertex="1" parent="1">
          <mxGeometry x="510" y="552" width="80" height="26" as="geometry" />
        </mxCell>
        <mxCell id="-hvkRYBavN8YZfYdUK61-12" value="&lt;span style=&quot;font-weight: normal;&quot;&gt;1..*&lt;/span&gt;" style="text;align=center;fontStyle=1;verticalAlign=middle;spacingLeft=3;spacingRight=3;strokeColor=none;rotatable=0;points=[[0,0.5],[1,0.5]];portConstraint=eastwest;html=1;" vertex="1" parent="1">
          <mxGeometry x="440" y="654" width="80" height="26" as="geometry" />
        </mxCell>
        <mxCell id="-hvkRYBavN8YZfYdUK61-13" value="" style="endArrow=diamondThin;endFill=1;endSize=24;html=1;rounded=0;edgeStyle=orthogonalEdgeStyle;entryX=-0.008;entryY=0.796;entryDx=0;entryDy=0;entryPerimeter=0;" edge="1" parent="1" source="-hvkRYBavN8YZfYdUK61-5" target="-hvkRYBavN8YZfYdUK61-2">
          <mxGeometry width="160" relative="1" as="geometry">
            <mxPoint x="630" y="670" as="sourcePoint" />
            <mxPoint x="510" y="570" as="targetPoint" />
          </mxGeometry>
        </mxCell>
        <mxCell id="-hvkRYBavN8YZfYdUK61-14" value="&lt;font style=&quot;font-size: 15px;&quot;&gt;Pilot&lt;/font&gt;" style="swimlane;fontStyle=0;childLayout=stackLayout;horizontal=1;startSize=26;fillColor=none;horizontalStack=0;resizeParent=1;resizeParentMax=0;resizeLast=0;collapsible=1;marginBottom=0;whiteSpace=wrap;html=1;" vertex="1" parent="1">
          <mxGeometry x="620" y="680" width="140" height="140" as="geometry" />
        </mxCell>
        <mxCell id="-hvkRYBavN8YZfYdUK61-15" value="+ name: String" style="text;strokeColor=none;fillColor=none;align=left;verticalAlign=top;spacingLeft=4;spacingRight=4;overflow=hidden;rotatable=0;points=[[0,0.5],[1,0.5]];portConstraint=eastwest;whiteSpace=wrap;html=1;" vertex="1" parent="-hvkRYBavN8YZfYdUK61-14">
          <mxGeometry y="26" width="140" height="26" as="geometry" />
        </mxCell>
        <mxCell id="-hvkRYBavN8YZfYdUK61-16" value="+ age: int" style="text;strokeColor=none;fillColor=none;align=left;verticalAlign=top;spacingLeft=4;spacingRight=4;overflow=hidden;rotatable=0;points=[[0,0.5],[1,0.5]];portConstraint=eastwest;whiteSpace=wrap;html=1;" vertex="1" parent="-hvkRYBavN8YZfYdUK61-14">
          <mxGeometry y="52" width="140" height="26" as="geometry" />
        </mxCell>
        <mxCell id="-hvkRYBavN8YZfYdUK61-17" value="+ pilotID: int" style="text;strokeColor=none;fillColor=none;align=left;verticalAlign=top;spacingLeft=4;spacingRight=4;overflow=hidden;rotatable=0;points=[[0,0.5],[1,0.5]];portConstraint=eastwest;whiteSpace=wrap;html=1;" vertex="1" parent="-hvkRYBavN8YZfYdUK61-14">
          <mxGeometry y="78" width="140" height="32" as="geometry" />
        </mxCell>
        <mxCell id="-hvkRYBavN8YZfYdUK61-20" value="+ experinceLevel: int" style="text;strokeColor=none;fillColor=none;align=left;verticalAlign=top;spacingLeft=4;spacingRight=4;overflow=hidden;rotatable=0;points=[[0,0.5],[1,0.5]];portConstraint=eastwest;whiteSpace=wrap;html=1;" vertex="1" parent="-hvkRYBavN8YZfYdUK61-14">
          <mxGeometry y="110" width="140" height="30" as="geometry" />
        </mxCell>
        <mxCell id="-hvkRYBavN8YZfYdUK61-21" value="" style="endArrow=diamondThin;endFill=1;endSize=24;html=1;rounded=0;exitX=1.012;exitY=0.353;exitDx=0;exitDy=0;exitPerimeter=0;" edge="1" parent="1" source="-hvkRYBavN8YZfYdUK61-7" target="-hvkRYBavN8YZfYdUK61-17">
          <mxGeometry width="160" relative="1" as="geometry">
            <mxPoint x="570" y="653.31" as="sourcePoint" />
            <mxPoint x="730" y="653.31" as="targetPoint" />
          </mxGeometry>
        </mxCell>
        <mxCell id="-hvkRYBavN8YZfYdUK61-22" value="&lt;span style=&quot;font-weight: normal;&quot;&gt;1&lt;/span&gt;" style="text;align=center;fontStyle=1;verticalAlign=middle;spacingLeft=3;spacingRight=3;strokeColor=none;rotatable=0;points=[[0,0.5],[1,0.5]];portConstraint=eastwest;html=1;" vertex="1" parent="1">
          <mxGeometry x="500" y="719" width="80" height="26" as="geometry" />
        </mxCell>
        <mxCell id="-hvkRYBavN8YZfYdUK61-23" value="&lt;span style=&quot;font-weight: normal;&quot;&gt;1&lt;/span&gt;" style="text;align=center;fontStyle=1;verticalAlign=middle;spacingLeft=3;spacingRight=3;strokeColor=none;rotatable=0;points=[[0,0.5],[1,0.5]];portConstraint=eastwest;html=1;" vertex="1" parent="1">
          <mxGeometry x="560" y="719" width="80" height="26" as="geometry" />
        </mxCell>
        <mxCell id="-hvkRYBavN8YZfYdUK61-25" value="&lt;font style=&quot;font-size: 15px;&quot;&gt;Flight       &lt;/font&gt;" style="swimlane;fontStyle=0;childLayout=stackLayout;horizontal=1;startSize=26;fillColor=none;horizontalStack=0;resizeParent=1;resizeParentMax=0;resizeLast=0;collapsible=1;marginBottom=0;whiteSpace=wrap;html=1;" vertex="1" parent="1">
          <mxGeometry x="877" y="570" width="140" height="184" as="geometry" />
        </mxCell>
        <mxCell id="-hvkRYBavN8YZfYdUK61-26" value="+&amp;nbsp;flightID     : int" style="text;strokeColor=none;fillColor=none;align=left;verticalAlign=top;spacingLeft=4;spacingRight=4;overflow=hidden;rotatable=0;points=[[0,0.5],[1,0.5]];portConstraint=eastwest;whiteSpace=wrap;html=1;" vertex="1" parent="-hvkRYBavN8YZfYdUK61-25">
          <mxGeometry y="26" width="140" height="26" as="geometry" />
        </mxCell>
        <mxCell id="-hvkRYBavN8YZfYdUK61-27" value="+&amp;nbsp;departure    : String" style="text;strokeColor=none;fillColor=none;align=left;verticalAlign=top;spacingLeft=4;spacingRight=4;overflow=hidden;rotatable=0;points=[[0,0.5],[1,0.5]];portConstraint=eastwest;whiteSpace=wrap;html=1;" vertex="1" parent="-hvkRYBavN8YZfYdUK61-25">
          <mxGeometry y="52" width="140" height="28" as="geometry" />
        </mxCell>
        <mxCell id="-hvkRYBavN8YZfYdUK61-31" value="+&amp;nbsp;arrival      : String" style="text;strokeColor=none;fillColor=none;align=left;verticalAlign=top;spacingLeft=4;spacingRight=4;overflow=hidden;rotatable=0;points=[[0,0.5],[1,0.5]];portConstraint=eastwest;whiteSpace=wrap;html=1;" vertex="1" parent="-hvkRYBavN8YZfYdUK61-25">
          <mxGeometry y="80" width="140" height="26" as="geometry" />
        </mxCell>
        <mxCell id="-hvkRYBavN8YZfYdUK61-32" value="+&amp;nbsp;depTime      : String" style="text;strokeColor=none;fillColor=none;align=left;verticalAlign=top;spacingLeft=4;spacingRight=4;overflow=hidden;rotatable=0;points=[[0,0.5],[1,0.5]];portConstraint=eastwest;whiteSpace=wrap;html=1;" vertex="1" parent="-hvkRYBavN8YZfYdUK61-25">
          <mxGeometry y="106" width="140" height="26" as="geometry" />
        </mxCell>
        <mxCell id="-hvkRYBavN8YZfYdUK61-30" value="+&amp;nbsp;arrTime      : String" style="text;strokeColor=none;fillColor=none;align=left;verticalAlign=top;spacingLeft=4;spacingRight=4;overflow=hidden;rotatable=0;points=[[0,0.5],[1,0.5]];portConstraint=eastwest;whiteSpace=wrap;html=1;" vertex="1" parent="-hvkRYBavN8YZfYdUK61-25">
          <mxGeometry y="132" width="140" height="26" as="geometry" />
        </mxCell>
        <mxCell id="-hvkRYBavN8YZfYdUK61-29" value="+&amp;nbsp;airplaneType : String" style="text;strokeColor=none;fillColor=none;align=left;verticalAlign=top;spacingLeft=4;spacingRight=4;overflow=hidden;rotatable=0;points=[[0,0.5],[1,0.5]];portConstraint=eastwest;whiteSpace=wrap;html=1;" vertex="1" parent="-hvkRYBavN8YZfYdUK61-25">
          <mxGeometry y="158" width="140" height="26" as="geometry" />
        </mxCell>
        <mxCell id="-hvkRYBavN8YZfYdUK61-34" value="&lt;font style=&quot;font-size: 15px;&quot;&gt;co-Pilot&lt;/font&gt;" style="swimlane;fontStyle=0;childLayout=stackLayout;horizontal=1;startSize=26;fillColor=none;horizontalStack=0;resizeParent=1;resizeParentMax=0;resizeLast=0;collapsible=1;marginBottom=0;whiteSpace=wrap;html=1;" vertex="1" parent="1">
          <mxGeometry x="620" y="900" width="140" height="140" as="geometry" />
        </mxCell>
        <mxCell id="-hvkRYBavN8YZfYdUK61-35" value="+ name: String" style="text;strokeColor=none;fillColor=none;align=left;verticalAlign=top;spacingLeft=4;spacingRight=4;overflow=hidden;rotatable=0;points=[[0,0.5],[1,0.5]];portConstraint=eastwest;whiteSpace=wrap;html=1;" vertex="1" parent="-hvkRYBavN8YZfYdUK61-34">
          <mxGeometry y="26" width="140" height="26" as="geometry" />
        </mxCell>
        <mxCell id="-hvkRYBavN8YZfYdUK61-36" value="+ age: int" style="text;strokeColor=none;fillColor=none;align=left;verticalAlign=top;spacingLeft=4;spacingRight=4;overflow=hidden;rotatable=0;points=[[0,0.5],[1,0.5]];portConstraint=eastwest;whiteSpace=wrap;html=1;" vertex="1" parent="-hvkRYBavN8YZfYdUK61-34">
          <mxGeometry y="52" width="140" height="26" as="geometry" />
        </mxCell>
        <mxCell id="-hvkRYBavN8YZfYdUK61-37" value="+ pilotID: int" style="text;strokeColor=none;fillColor=none;align=left;verticalAlign=top;spacingLeft=4;spacingRight=4;overflow=hidden;rotatable=0;points=[[0,0.5],[1,0.5]];portConstraint=eastwest;whiteSpace=wrap;html=1;" vertex="1" parent="-hvkRYBavN8YZfYdUK61-34">
          <mxGeometry y="78" width="140" height="32" as="geometry" />
        </mxCell>
        <mxCell id="-hvkRYBavN8YZfYdUK61-38" value="+ experinceLevel: int" style="text;strokeColor=none;fillColor=none;align=left;verticalAlign=top;spacingLeft=4;spacingRight=4;overflow=hidden;rotatable=0;points=[[0,0.5],[1,0.5]];portConstraint=eastwest;whiteSpace=wrap;html=1;" vertex="1" parent="-hvkRYBavN8YZfYdUK61-34">
          <mxGeometry y="110" width="140" height="30" as="geometry" />
        </mxCell>
        <mxCell id="-hvkRYBavN8YZfYdUK61-39" value="Extends" style="endArrow=block;endSize=16;endFill=0;html=1;rounded=0;entryX=0.502;entryY=1.039;entryDx=0;entryDy=0;entryPerimeter=0;exitX=0.5;exitY=0;exitDx=0;exitDy=0;" edge="1" parent="1" source="-hvkRYBavN8YZfYdUK61-34" target="-hvkRYBavN8YZfYdUK61-20">
          <mxGeometry width="160" relative="1" as="geometry">
            <mxPoint x="640" y="850" as="sourcePoint" />
            <mxPoint x="800" y="850" as="targetPoint" />
          </mxGeometry>
        </mxCell>
        <mxCell id="-hvkRYBavN8YZfYdUK61-43" value="" style="line;strokeWidth=1;fillColor=none;align=left;verticalAlign=middle;spacingTop=-1;spacingLeft=3;spacingRight=3;rotatable=0;labelPosition=right;points=[];portConstraint=eastwest;strokeColor=inherit;" vertex="1" parent="1">
          <mxGeometry x="700" y="700" width="40" height="8" as="geometry" />
        </mxCell>
        <mxCell id="-hvkRYBavN8YZfYdUK61-44" value="" style="endArrow=none;endFill=0;endSize=12;html=1;rounded=0;exitX=1.004;exitY=-0.03;exitDx=0;exitDy=0;exitPerimeter=0;edgeStyle=orthogonalEdgeStyle;entryX=0.001;entryY=0.828;entryDx=0;entryDy=0;entryPerimeter=0;" edge="1" parent="1" source="-hvkRYBavN8YZfYdUK61-17" target="-hvkRYBavN8YZfYdUK61-31">
          <mxGeometry width="160" relative="1" as="geometry">
            <mxPoint x="640" y="710" as="sourcePoint" />
            <mxPoint x="850" y="670" as="targetPoint" />
            <Array as="points">
              <mxPoint x="800" y="757" />
              <mxPoint x="800" y="670" />
              <mxPoint x="877" y="670" />
            </Array>
          </mxGeometry>
        </mxCell>
        <mxCell id="-hvkRYBavN8YZfYdUK61-45" value="&lt;span style=&quot;font-weight: normal;&quot;&gt;1&lt;/span&gt;" style="text;align=center;fontStyle=1;verticalAlign=middle;spacingLeft=3;spacingRight=3;strokeColor=none;rotatable=0;points=[[0,0.5],[1,0.5]];portConstraint=eastwest;html=1;" vertex="1" parent="1">
          <mxGeometry x="820" y="674" width="80" height="26" as="geometry" />
        </mxCell>
        <mxCell id="-hvkRYBavN8YZfYdUK61-46" value="&lt;span style=&quot;font-weight: normal;&quot;&gt;1..*&lt;/span&gt;" style="text;align=center;fontStyle=1;verticalAlign=middle;spacingLeft=3;spacingRight=3;strokeColor=none;rotatable=0;points=[[0,0.5],[1,0.5]];portConstraint=eastwest;html=1;" vertex="1" parent="1">
          <mxGeometry x="740" y="758" width="80" height="26" as="geometry" />
        </mxCell>
        <mxCell id="-hvkRYBavN8YZfYdUK61-48" value="" style="endArrow=none;endFill=0;endSize=12;html=1;rounded=0;exitX=0.997;exitY=0.368;exitDx=0;exitDy=0;exitPerimeter=0;entryX=0.006;entryY=0.942;entryDx=0;entryDy=0;entryPerimeter=0;edgeStyle=orthogonalEdgeStyle;" edge="1" parent="1" source="-hvkRYBavN8YZfYdUK61-3" target="-hvkRYBavN8YZfYdUK61-26">
          <mxGeometry width="160" relative="1" as="geometry">
            <mxPoint x="640" y="640" as="sourcePoint" />
            <mxPoint x="880" y="610" as="targetPoint" />
          </mxGeometry>
        </mxCell>
        <mxCell id="-hvkRYBavN8YZfYdUK61-49" value="&lt;span style=&quot;font-weight: normal;&quot;&gt;1&lt;/span&gt;" style="text;align=center;fontStyle=1;verticalAlign=middle;spacingLeft=3;spacingRight=3;strokeColor=none;rotatable=0;points=[[0,0.5],[1,0.5]];portConstraint=eastwest;html=1;" vertex="1" parent="1">
          <mxGeometry x="680" y="544" width="80" height="26" as="geometry" />
        </mxCell>
        <mxCell id="-hvkRYBavN8YZfYdUK61-50" value="&lt;span style=&quot;font-weight: normal;&quot;&gt;1..*&lt;/span&gt;" style="text;align=center;fontStyle=1;verticalAlign=middle;spacingLeft=3;spacingRight=3;strokeColor=none;rotatable=0;points=[[0,0.5],[1,0.5]];portConstraint=eastwest;html=1;" vertex="1" parent="1">
          <mxGeometry x="820" y="594" width="80" height="26" as="geometry" />
        </mxCell>
      </root>
    </mxGraphModel>
  </diagram>
</mxfile>
